<mxfile host="app.diagrams.net" agent="Mozilla/5.0 (X11; Linux x86_64; rv:128.0) Gecko/20100101 Firefox/128.0" version="26.0.5">
  <diagram name="Strona-1" id="X1uDLimuUNG-vRkJYFu8">
    <mxGraphModel dx="1395" dy="657" grid="1" gridSize="10" guides="1" tooltips="1" connect="1" arrows="1" fold="1" page="1" pageScale="1" pageWidth="827" pageHeight="1169" math="0" shadow="0">
      <root>
        <mxCell id="0" />
        <mxCell id="1" parent="0" />
        <mxCell id="uXmJdy385k_lljt_rK2v-116" value="" style="group" vertex="1" connectable="0" parent="1">
          <mxGeometry x="590" y="240" width="10" height="540" as="geometry" />
        </mxCell>
        <mxCell id="uXmJdy385k_lljt_rK2v-117" value="" style="rounded=1;whiteSpace=wrap;html=1;" vertex="1" parent="uXmJdy385k_lljt_rK2v-116">
          <mxGeometry width="10" height="540" as="geometry" />
        </mxCell>
        <mxCell id="uXmJdy385k_lljt_rK2v-118" value="" style="shape=link;html=1;rounded=0;" edge="1" parent="uXmJdy385k_lljt_rK2v-116">
          <mxGeometry width="100" relative="1" as="geometry">
            <mxPoint y="10" as="sourcePoint" />
            <mxPoint x="10" y="10" as="targetPoint" />
          </mxGeometry>
        </mxCell>
        <mxCell id="uXmJdy385k_lljt_rK2v-119" value="" style="shape=link;html=1;rounded=0;" edge="1" parent="uXmJdy385k_lljt_rK2v-116">
          <mxGeometry width="100" relative="1" as="geometry">
            <mxPoint y="20" as="sourcePoint" />
            <mxPoint x="10" y="20" as="targetPoint" />
          </mxGeometry>
        </mxCell>
        <mxCell id="uXmJdy385k_lljt_rK2v-120" value="" style="shape=link;html=1;rounded=0;" edge="1" parent="uXmJdy385k_lljt_rK2v-116">
          <mxGeometry width="100" relative="1" as="geometry">
            <mxPoint y="30" as="sourcePoint" />
            <mxPoint x="10" y="30" as="targetPoint" />
          </mxGeometry>
        </mxCell>
        <mxCell id="uXmJdy385k_lljt_rK2v-121" value="" style="shape=link;html=1;rounded=0;" edge="1" parent="uXmJdy385k_lljt_rK2v-116">
          <mxGeometry width="100" relative="1" as="geometry">
            <mxPoint y="40" as="sourcePoint" />
            <mxPoint x="10" y="40" as="targetPoint" />
          </mxGeometry>
        </mxCell>
        <mxCell id="uXmJdy385k_lljt_rK2v-122" value="" style="shape=link;html=1;rounded=0;" edge="1" parent="uXmJdy385k_lljt_rK2v-116">
          <mxGeometry width="100" relative="1" as="geometry">
            <mxPoint y="50" as="sourcePoint" />
            <mxPoint x="10" y="50" as="targetPoint" />
          </mxGeometry>
        </mxCell>
        <mxCell id="uXmJdy385k_lljt_rK2v-123" value="" style="shape=link;html=1;rounded=0;" edge="1" parent="uXmJdy385k_lljt_rK2v-116">
          <mxGeometry width="100" relative="1" as="geometry">
            <mxPoint y="60" as="sourcePoint" />
            <mxPoint x="10" y="60" as="targetPoint" />
          </mxGeometry>
        </mxCell>
        <mxCell id="uXmJdy385k_lljt_rK2v-124" value="" style="shape=link;html=1;rounded=0;" edge="1" parent="uXmJdy385k_lljt_rK2v-116">
          <mxGeometry width="100" relative="1" as="geometry">
            <mxPoint y="70" as="sourcePoint" />
            <mxPoint x="10" y="70" as="targetPoint" />
          </mxGeometry>
        </mxCell>
        <mxCell id="uXmJdy385k_lljt_rK2v-125" value="" style="shape=link;html=1;rounded=0;" edge="1" parent="uXmJdy385k_lljt_rK2v-116">
          <mxGeometry width="100" relative="1" as="geometry">
            <mxPoint y="80" as="sourcePoint" />
            <mxPoint x="10" y="80" as="targetPoint" />
          </mxGeometry>
        </mxCell>
        <mxCell id="uXmJdy385k_lljt_rK2v-126" value="" style="shape=link;html=1;rounded=0;" edge="1" parent="uXmJdy385k_lljt_rK2v-116">
          <mxGeometry width="100" relative="1" as="geometry">
            <mxPoint y="90" as="sourcePoint" />
            <mxPoint x="10" y="90" as="targetPoint" />
          </mxGeometry>
        </mxCell>
        <mxCell id="uXmJdy385k_lljt_rK2v-127" value="" style="shape=link;html=1;rounded=0;fillColor=#424242;" edge="1" parent="uXmJdy385k_lljt_rK2v-116">
          <mxGeometry width="100" relative="1" as="geometry">
            <mxPoint y="100" as="sourcePoint" />
            <mxPoint x="10" y="100" as="targetPoint" />
          </mxGeometry>
        </mxCell>
        <mxCell id="uXmJdy385k_lljt_rK2v-128" value="" style="shape=link;html=1;rounded=0;" edge="1" parent="uXmJdy385k_lljt_rK2v-116">
          <mxGeometry width="100" relative="1" as="geometry">
            <mxPoint y="110" as="sourcePoint" />
            <mxPoint x="10" y="110" as="targetPoint" />
          </mxGeometry>
        </mxCell>
        <mxCell id="uXmJdy385k_lljt_rK2v-129" value="" style="shape=link;html=1;rounded=0;" edge="1" parent="uXmJdy385k_lljt_rK2v-116">
          <mxGeometry width="100" relative="1" as="geometry">
            <mxPoint y="120" as="sourcePoint" />
            <mxPoint x="10" y="120" as="targetPoint" />
          </mxGeometry>
        </mxCell>
        <mxCell id="uXmJdy385k_lljt_rK2v-130" value="" style="shape=link;html=1;rounded=0;" edge="1" parent="uXmJdy385k_lljt_rK2v-116">
          <mxGeometry width="100" relative="1" as="geometry">
            <mxPoint y="130" as="sourcePoint" />
            <mxPoint x="10" y="130" as="targetPoint" />
          </mxGeometry>
        </mxCell>
        <mxCell id="uXmJdy385k_lljt_rK2v-131" value="" style="shape=link;html=1;rounded=0;" edge="1" parent="uXmJdy385k_lljt_rK2v-116">
          <mxGeometry width="100" relative="1" as="geometry">
            <mxPoint y="140" as="sourcePoint" />
            <mxPoint x="10" y="140" as="targetPoint" />
          </mxGeometry>
        </mxCell>
        <mxCell id="uXmJdy385k_lljt_rK2v-132" value="" style="shape=link;html=1;rounded=0;" edge="1" parent="uXmJdy385k_lljt_rK2v-116">
          <mxGeometry width="100" relative="1" as="geometry">
            <mxPoint y="150" as="sourcePoint" />
            <mxPoint x="10" y="150" as="targetPoint" />
          </mxGeometry>
        </mxCell>
        <mxCell id="uXmJdy385k_lljt_rK2v-133" value="" style="shape=link;html=1;rounded=0;" edge="1" parent="uXmJdy385k_lljt_rK2v-116">
          <mxGeometry width="100" relative="1" as="geometry">
            <mxPoint y="160" as="sourcePoint" />
            <mxPoint x="10" y="160" as="targetPoint" />
          </mxGeometry>
        </mxCell>
        <mxCell id="uXmJdy385k_lljt_rK2v-134" value="" style="shape=link;html=1;rounded=0;" edge="1" parent="uXmJdy385k_lljt_rK2v-116">
          <mxGeometry width="100" relative="1" as="geometry">
            <mxPoint y="170" as="sourcePoint" />
            <mxPoint x="10" y="170" as="targetPoint" />
          </mxGeometry>
        </mxCell>
        <mxCell id="uXmJdy385k_lljt_rK2v-135" value="" style="shape=link;html=1;rounded=0;" edge="1" parent="uXmJdy385k_lljt_rK2v-116">
          <mxGeometry width="100" relative="1" as="geometry">
            <mxPoint y="180" as="sourcePoint" />
            <mxPoint x="10" y="180" as="targetPoint" />
          </mxGeometry>
        </mxCell>
        <mxCell id="uXmJdy385k_lljt_rK2v-136" value="" style="shape=link;html=1;rounded=0;" edge="1" parent="uXmJdy385k_lljt_rK2v-116">
          <mxGeometry width="100" relative="1" as="geometry">
            <mxPoint y="190" as="sourcePoint" />
            <mxPoint x="10" y="190" as="targetPoint" />
          </mxGeometry>
        </mxCell>
        <mxCell id="uXmJdy385k_lljt_rK2v-137" value="" style="shape=link;html=1;rounded=0;" edge="1" parent="uXmJdy385k_lljt_rK2v-116">
          <mxGeometry width="100" relative="1" as="geometry">
            <mxPoint y="200" as="sourcePoint" />
            <mxPoint x="10" y="200" as="targetPoint" />
          </mxGeometry>
        </mxCell>
        <mxCell id="uXmJdy385k_lljt_rK2v-138" value="" style="shape=link;html=1;rounded=0;" edge="1" parent="uXmJdy385k_lljt_rK2v-116">
          <mxGeometry width="100" relative="1" as="geometry">
            <mxPoint y="210" as="sourcePoint" />
            <mxPoint x="10" y="210" as="targetPoint" />
          </mxGeometry>
        </mxCell>
        <mxCell id="uXmJdy385k_lljt_rK2v-139" value="" style="shape=link;html=1;rounded=0;" edge="1" parent="uXmJdy385k_lljt_rK2v-116">
          <mxGeometry width="100" relative="1" as="geometry">
            <mxPoint y="220" as="sourcePoint" />
            <mxPoint x="10" y="220" as="targetPoint" />
          </mxGeometry>
        </mxCell>
        <mxCell id="uXmJdy385k_lljt_rK2v-140" value="" style="shape=link;html=1;rounded=0;" edge="1" parent="uXmJdy385k_lljt_rK2v-116">
          <mxGeometry width="100" relative="1" as="geometry">
            <mxPoint y="230" as="sourcePoint" />
            <mxPoint x="10" y="230" as="targetPoint" />
          </mxGeometry>
        </mxCell>
        <mxCell id="uXmJdy385k_lljt_rK2v-141" value="" style="shape=link;html=1;rounded=0;" edge="1" parent="uXmJdy385k_lljt_rK2v-116">
          <mxGeometry width="100" relative="1" as="geometry">
            <mxPoint y="240" as="sourcePoint" />
            <mxPoint x="10" y="240" as="targetPoint" />
          </mxGeometry>
        </mxCell>
        <mxCell id="uXmJdy385k_lljt_rK2v-142" value="" style="shape=link;html=1;rounded=0;" edge="1" parent="uXmJdy385k_lljt_rK2v-116">
          <mxGeometry width="100" relative="1" as="geometry">
            <mxPoint y="250" as="sourcePoint" />
            <mxPoint x="10" y="250" as="targetPoint" />
          </mxGeometry>
        </mxCell>
        <mxCell id="uXmJdy385k_lljt_rK2v-143" value="" style="shape=link;html=1;rounded=0;" edge="1" parent="uXmJdy385k_lljt_rK2v-116">
          <mxGeometry width="100" relative="1" as="geometry">
            <mxPoint y="260" as="sourcePoint" />
            <mxPoint x="10" y="260" as="targetPoint" />
          </mxGeometry>
        </mxCell>
        <mxCell id="uXmJdy385k_lljt_rK2v-144" value="" style="shape=link;html=1;rounded=0;" edge="1" parent="uXmJdy385k_lljt_rK2v-116">
          <mxGeometry width="100" relative="1" as="geometry">
            <mxPoint y="270" as="sourcePoint" />
            <mxPoint x="10" y="270" as="targetPoint" />
          </mxGeometry>
        </mxCell>
        <mxCell id="uXmJdy385k_lljt_rK2v-145" value="" style="shape=link;html=1;rounded=0;" edge="1" parent="uXmJdy385k_lljt_rK2v-116">
          <mxGeometry width="100" relative="1" as="geometry">
            <mxPoint y="279.99999999999994" as="sourcePoint" />
            <mxPoint x="10" y="279.99999999999994" as="targetPoint" />
          </mxGeometry>
        </mxCell>
        <mxCell id="uXmJdy385k_lljt_rK2v-146" value="" style="shape=link;html=1;rounded=0;" edge="1" parent="uXmJdy385k_lljt_rK2v-116">
          <mxGeometry width="100" relative="1" as="geometry">
            <mxPoint y="289.99999999999994" as="sourcePoint" />
            <mxPoint x="10" y="289.99999999999994" as="targetPoint" />
          </mxGeometry>
        </mxCell>
        <mxCell id="uXmJdy385k_lljt_rK2v-147" value="" style="shape=link;html=1;rounded=0;" edge="1" parent="uXmJdy385k_lljt_rK2v-116">
          <mxGeometry width="100" relative="1" as="geometry">
            <mxPoint y="299.99999999999994" as="sourcePoint" />
            <mxPoint x="10" y="299.99999999999994" as="targetPoint" />
          </mxGeometry>
        </mxCell>
        <mxCell id="uXmJdy385k_lljt_rK2v-148" value="" style="shape=link;html=1;rounded=0;" edge="1" parent="uXmJdy385k_lljt_rK2v-116">
          <mxGeometry width="100" relative="1" as="geometry">
            <mxPoint y="309.99999999999994" as="sourcePoint" />
            <mxPoint x="10" y="309.99999999999994" as="targetPoint" />
          </mxGeometry>
        </mxCell>
        <mxCell id="uXmJdy385k_lljt_rK2v-149" value="" style="shape=link;html=1;rounded=0;" edge="1" parent="uXmJdy385k_lljt_rK2v-116">
          <mxGeometry width="100" relative="1" as="geometry">
            <mxPoint y="319.99999999999994" as="sourcePoint" />
            <mxPoint x="10" y="319.99999999999994" as="targetPoint" />
          </mxGeometry>
        </mxCell>
        <mxCell id="uXmJdy385k_lljt_rK2v-150" value="" style="shape=link;html=1;rounded=0;" edge="1" parent="uXmJdy385k_lljt_rK2v-116">
          <mxGeometry width="100" relative="1" as="geometry">
            <mxPoint y="329.99999999999994" as="sourcePoint" />
            <mxPoint x="10" y="329.99999999999994" as="targetPoint" />
          </mxGeometry>
        </mxCell>
        <mxCell id="uXmJdy385k_lljt_rK2v-151" value="" style="shape=link;html=1;rounded=0;" edge="1" parent="uXmJdy385k_lljt_rK2v-116">
          <mxGeometry width="100" relative="1" as="geometry">
            <mxPoint y="339.99999999999994" as="sourcePoint" />
            <mxPoint x="10" y="339.99999999999994" as="targetPoint" />
          </mxGeometry>
        </mxCell>
        <mxCell id="uXmJdy385k_lljt_rK2v-152" value="" style="shape=link;html=1;rounded=0;" edge="1" parent="uXmJdy385k_lljt_rK2v-116">
          <mxGeometry width="100" relative="1" as="geometry">
            <mxPoint y="349.99999999999994" as="sourcePoint" />
            <mxPoint x="10" y="349.99999999999994" as="targetPoint" />
          </mxGeometry>
        </mxCell>
        <mxCell id="uXmJdy385k_lljt_rK2v-153" value="" style="shape=link;html=1;rounded=0;" edge="1" parent="uXmJdy385k_lljt_rK2v-116">
          <mxGeometry width="100" relative="1" as="geometry">
            <mxPoint y="359.99999999999994" as="sourcePoint" />
            <mxPoint x="10" y="359.99999999999994" as="targetPoint" />
          </mxGeometry>
        </mxCell>
        <mxCell id="uXmJdy385k_lljt_rK2v-154" value="" style="shape=link;html=1;rounded=0;" edge="1" parent="uXmJdy385k_lljt_rK2v-116">
          <mxGeometry width="100" relative="1" as="geometry">
            <mxPoint y="369.99999999999994" as="sourcePoint" />
            <mxPoint x="10" y="369.99999999999994" as="targetPoint" />
          </mxGeometry>
        </mxCell>
        <mxCell id="uXmJdy385k_lljt_rK2v-155" value="" style="shape=link;html=1;rounded=0;" edge="1" parent="uXmJdy385k_lljt_rK2v-116">
          <mxGeometry width="100" relative="1" as="geometry">
            <mxPoint y="379.99999999999994" as="sourcePoint" />
            <mxPoint x="10" y="379.99999999999994" as="targetPoint" />
          </mxGeometry>
        </mxCell>
        <mxCell id="uXmJdy385k_lljt_rK2v-156" value="" style="shape=link;html=1;rounded=0;" edge="1" parent="uXmJdy385k_lljt_rK2v-116">
          <mxGeometry width="100" relative="1" as="geometry">
            <mxPoint y="389.99999999999994" as="sourcePoint" />
            <mxPoint x="10" y="389.99999999999994" as="targetPoint" />
          </mxGeometry>
        </mxCell>
        <mxCell id="uXmJdy385k_lljt_rK2v-157" style="edgeStyle=orthogonalEdgeStyle;rounded=0;orthogonalLoop=1;jettySize=auto;html=1;exitX=0.5;exitY=1;exitDx=0;exitDy=0;" edge="1" parent="uXmJdy385k_lljt_rK2v-116" source="uXmJdy385k_lljt_rK2v-117" target="uXmJdy385k_lljt_rK2v-117">
          <mxGeometry relative="1" as="geometry" />
        </mxCell>
        <mxCell id="uXmJdy385k_lljt_rK2v-158" value="" style="shape=link;html=1;rounded=0;" edge="1" parent="uXmJdy385k_lljt_rK2v-116">
          <mxGeometry width="100" relative="1" as="geometry">
            <mxPoint y="399.99999999999994" as="sourcePoint" />
            <mxPoint x="10" y="399.99999999999994" as="targetPoint" />
          </mxGeometry>
        </mxCell>
        <mxCell id="uXmJdy385k_lljt_rK2v-159" value="" style="shape=link;html=1;rounded=0;" edge="1" parent="uXmJdy385k_lljt_rK2v-116">
          <mxGeometry width="100" relative="1" as="geometry">
            <mxPoint y="409.99999999999994" as="sourcePoint" />
            <mxPoint x="10" y="409.99999999999994" as="targetPoint" />
          </mxGeometry>
        </mxCell>
        <mxCell id="uXmJdy385k_lljt_rK2v-160" value="" style="shape=link;html=1;rounded=0;" edge="1" parent="uXmJdy385k_lljt_rK2v-116">
          <mxGeometry width="100" relative="1" as="geometry">
            <mxPoint y="419.99999999999994" as="sourcePoint" />
            <mxPoint x="10" y="419.99999999999994" as="targetPoint" />
          </mxGeometry>
        </mxCell>
        <mxCell id="uXmJdy385k_lljt_rK2v-161" value="" style="shape=link;html=1;rounded=0;" edge="1" parent="uXmJdy385k_lljt_rK2v-116">
          <mxGeometry width="100" relative="1" as="geometry">
            <mxPoint y="429.99999999999994" as="sourcePoint" />
            <mxPoint x="10" y="429.99999999999994" as="targetPoint" />
          </mxGeometry>
        </mxCell>
        <mxCell id="uXmJdy385k_lljt_rK2v-162" value="" style="shape=link;html=1;rounded=0;" edge="1" parent="uXmJdy385k_lljt_rK2v-116">
          <mxGeometry width="100" relative="1" as="geometry">
            <mxPoint y="439.99999999999994" as="sourcePoint" />
            <mxPoint x="10" y="439.99999999999994" as="targetPoint" />
          </mxGeometry>
        </mxCell>
        <mxCell id="uXmJdy385k_lljt_rK2v-163" value="" style="shape=link;html=1;rounded=0;" edge="1" parent="uXmJdy385k_lljt_rK2v-116">
          <mxGeometry width="100" relative="1" as="geometry">
            <mxPoint y="449.99999999999994" as="sourcePoint" />
            <mxPoint x="10" y="449.99999999999994" as="targetPoint" />
          </mxGeometry>
        </mxCell>
        <mxCell id="uXmJdy385k_lljt_rK2v-164" value="" style="shape=link;html=1;rounded=0;" edge="1" parent="uXmJdy385k_lljt_rK2v-116">
          <mxGeometry width="100" relative="1" as="geometry">
            <mxPoint y="459.99999999999994" as="sourcePoint" />
            <mxPoint x="10" y="459.99999999999994" as="targetPoint" />
          </mxGeometry>
        </mxCell>
        <mxCell id="uXmJdy385k_lljt_rK2v-165" value="" style="shape=link;html=1;rounded=0;" edge="1" parent="uXmJdy385k_lljt_rK2v-116">
          <mxGeometry width="100" relative="1" as="geometry">
            <mxPoint y="469.99999999999994" as="sourcePoint" />
            <mxPoint x="10" y="469.99999999999994" as="targetPoint" />
          </mxGeometry>
        </mxCell>
        <mxCell id="uXmJdy385k_lljt_rK2v-166" value="" style="shape=link;html=1;rounded=0;" edge="1" parent="uXmJdy385k_lljt_rK2v-116">
          <mxGeometry width="100" relative="1" as="geometry">
            <mxPoint y="479.99999999999994" as="sourcePoint" />
            <mxPoint x="10" y="479.99999999999994" as="targetPoint" />
          </mxGeometry>
        </mxCell>
        <mxCell id="uXmJdy385k_lljt_rK2v-167" value="" style="shape=link;html=1;rounded=0;" edge="1" parent="uXmJdy385k_lljt_rK2v-116">
          <mxGeometry width="100" relative="1" as="geometry">
            <mxPoint y="489.99999999999994" as="sourcePoint" />
            <mxPoint x="10" y="489.99999999999994" as="targetPoint" />
          </mxGeometry>
        </mxCell>
        <mxCell id="uXmJdy385k_lljt_rK2v-168" value="" style="shape=link;html=1;rounded=0;" edge="1" parent="uXmJdy385k_lljt_rK2v-116">
          <mxGeometry width="100" relative="1" as="geometry">
            <mxPoint y="499.99999999999994" as="sourcePoint" />
            <mxPoint x="10" y="499.99999999999994" as="targetPoint" />
          </mxGeometry>
        </mxCell>
        <mxCell id="uXmJdy385k_lljt_rK2v-169" value="" style="shape=link;html=1;rounded=0;" edge="1" parent="uXmJdy385k_lljt_rK2v-116">
          <mxGeometry width="100" relative="1" as="geometry">
            <mxPoint y="509.99999999999994" as="sourcePoint" />
            <mxPoint x="10" y="509.99999999999994" as="targetPoint" />
          </mxGeometry>
        </mxCell>
        <mxCell id="uXmJdy385k_lljt_rK2v-170" value="" style="shape=link;html=1;rounded=0;" edge="1" parent="uXmJdy385k_lljt_rK2v-116">
          <mxGeometry width="100" relative="1" as="geometry">
            <mxPoint y="520" as="sourcePoint" />
            <mxPoint x="10" y="520" as="targetPoint" />
          </mxGeometry>
        </mxCell>
        <mxCell id="uXmJdy385k_lljt_rK2v-171" value="" style="shape=link;html=1;rounded=0;" edge="1" parent="uXmJdy385k_lljt_rK2v-116">
          <mxGeometry width="100" relative="1" as="geometry">
            <mxPoint y="530" as="sourcePoint" />
            <mxPoint x="10" y="530" as="targetPoint" />
          </mxGeometry>
        </mxCell>
        <mxCell id="uXmJdy385k_lljt_rK2v-115" value="" style="group" vertex="1" connectable="0" parent="1">
          <mxGeometry x="120" y="239.43" width="10" height="540" as="geometry" />
        </mxCell>
        <mxCell id="uXmJdy385k_lljt_rK2v-55" value="" style="rounded=1;whiteSpace=wrap;html=1;" vertex="1" parent="uXmJdy385k_lljt_rK2v-115">
          <mxGeometry width="10" height="540" as="geometry" />
        </mxCell>
        <mxCell id="uXmJdy385k_lljt_rK2v-56" value="" style="shape=link;html=1;rounded=0;" edge="1" parent="uXmJdy385k_lljt_rK2v-115">
          <mxGeometry width="100" relative="1" as="geometry">
            <mxPoint y="10" as="sourcePoint" />
            <mxPoint x="10" y="10" as="targetPoint" />
          </mxGeometry>
        </mxCell>
        <mxCell id="uXmJdy385k_lljt_rK2v-57" value="" style="shape=link;html=1;rounded=0;" edge="1" parent="uXmJdy385k_lljt_rK2v-115">
          <mxGeometry width="100" relative="1" as="geometry">
            <mxPoint y="20" as="sourcePoint" />
            <mxPoint x="10" y="20" as="targetPoint" />
          </mxGeometry>
        </mxCell>
        <mxCell id="uXmJdy385k_lljt_rK2v-58" value="" style="shape=link;html=1;rounded=0;" edge="1" parent="uXmJdy385k_lljt_rK2v-115">
          <mxGeometry width="100" relative="1" as="geometry">
            <mxPoint y="30" as="sourcePoint" />
            <mxPoint x="10" y="30" as="targetPoint" />
          </mxGeometry>
        </mxCell>
        <mxCell id="uXmJdy385k_lljt_rK2v-59" value="" style="shape=link;html=1;rounded=0;" edge="1" parent="uXmJdy385k_lljt_rK2v-115">
          <mxGeometry width="100" relative="1" as="geometry">
            <mxPoint y="40" as="sourcePoint" />
            <mxPoint x="10" y="40" as="targetPoint" />
          </mxGeometry>
        </mxCell>
        <mxCell id="uXmJdy385k_lljt_rK2v-60" value="" style="shape=link;html=1;rounded=0;" edge="1" parent="uXmJdy385k_lljt_rK2v-115">
          <mxGeometry width="100" relative="1" as="geometry">
            <mxPoint y="50" as="sourcePoint" />
            <mxPoint x="10" y="50" as="targetPoint" />
          </mxGeometry>
        </mxCell>
        <mxCell id="uXmJdy385k_lljt_rK2v-61" value="" style="shape=link;html=1;rounded=0;" edge="1" parent="uXmJdy385k_lljt_rK2v-115">
          <mxGeometry width="100" relative="1" as="geometry">
            <mxPoint y="60" as="sourcePoint" />
            <mxPoint x="10" y="60" as="targetPoint" />
          </mxGeometry>
        </mxCell>
        <mxCell id="uXmJdy385k_lljt_rK2v-62" value="" style="shape=link;html=1;rounded=0;" edge="1" parent="uXmJdy385k_lljt_rK2v-115">
          <mxGeometry width="100" relative="1" as="geometry">
            <mxPoint y="70" as="sourcePoint" />
            <mxPoint x="10" y="70" as="targetPoint" />
          </mxGeometry>
        </mxCell>
        <mxCell id="uXmJdy385k_lljt_rK2v-63" value="" style="shape=link;html=1;rounded=0;" edge="1" parent="uXmJdy385k_lljt_rK2v-115">
          <mxGeometry width="100" relative="1" as="geometry">
            <mxPoint y="80" as="sourcePoint" />
            <mxPoint x="10" y="80" as="targetPoint" />
          </mxGeometry>
        </mxCell>
        <mxCell id="uXmJdy385k_lljt_rK2v-64" value="" style="shape=link;html=1;rounded=0;" edge="1" parent="uXmJdy385k_lljt_rK2v-115">
          <mxGeometry width="100" relative="1" as="geometry">
            <mxPoint y="90" as="sourcePoint" />
            <mxPoint x="10" y="90" as="targetPoint" />
          </mxGeometry>
        </mxCell>
        <mxCell id="uXmJdy385k_lljt_rK2v-65" value="" style="shape=link;html=1;rounded=0;fillColor=#424242;" edge="1" parent="uXmJdy385k_lljt_rK2v-115">
          <mxGeometry width="100" relative="1" as="geometry">
            <mxPoint y="100" as="sourcePoint" />
            <mxPoint x="10" y="100" as="targetPoint" />
          </mxGeometry>
        </mxCell>
        <mxCell id="uXmJdy385k_lljt_rK2v-66" value="" style="shape=link;html=1;rounded=0;" edge="1" parent="uXmJdy385k_lljt_rK2v-115">
          <mxGeometry width="100" relative="1" as="geometry">
            <mxPoint y="110" as="sourcePoint" />
            <mxPoint x="10" y="110" as="targetPoint" />
          </mxGeometry>
        </mxCell>
        <mxCell id="uXmJdy385k_lljt_rK2v-67" value="" style="shape=link;html=1;rounded=0;" edge="1" parent="uXmJdy385k_lljt_rK2v-115">
          <mxGeometry width="100" relative="1" as="geometry">
            <mxPoint y="120" as="sourcePoint" />
            <mxPoint x="10" y="120" as="targetPoint" />
          </mxGeometry>
        </mxCell>
        <mxCell id="uXmJdy385k_lljt_rK2v-68" value="" style="shape=link;html=1;rounded=0;" edge="1" parent="uXmJdy385k_lljt_rK2v-115">
          <mxGeometry width="100" relative="1" as="geometry">
            <mxPoint y="130" as="sourcePoint" />
            <mxPoint x="10" y="130" as="targetPoint" />
          </mxGeometry>
        </mxCell>
        <mxCell id="uXmJdy385k_lljt_rK2v-69" value="" style="shape=link;html=1;rounded=0;" edge="1" parent="uXmJdy385k_lljt_rK2v-115">
          <mxGeometry width="100" relative="1" as="geometry">
            <mxPoint y="140" as="sourcePoint" />
            <mxPoint x="10" y="140" as="targetPoint" />
          </mxGeometry>
        </mxCell>
        <mxCell id="uXmJdy385k_lljt_rK2v-70" value="" style="shape=link;html=1;rounded=0;" edge="1" parent="uXmJdy385k_lljt_rK2v-115">
          <mxGeometry width="100" relative="1" as="geometry">
            <mxPoint y="150" as="sourcePoint" />
            <mxPoint x="10" y="150" as="targetPoint" />
          </mxGeometry>
        </mxCell>
        <mxCell id="uXmJdy385k_lljt_rK2v-71" value="" style="shape=link;html=1;rounded=0;" edge="1" parent="uXmJdy385k_lljt_rK2v-115">
          <mxGeometry width="100" relative="1" as="geometry">
            <mxPoint y="160" as="sourcePoint" />
            <mxPoint x="10" y="160" as="targetPoint" />
          </mxGeometry>
        </mxCell>
        <mxCell id="uXmJdy385k_lljt_rK2v-72" value="" style="shape=link;html=1;rounded=0;" edge="1" parent="uXmJdy385k_lljt_rK2v-115">
          <mxGeometry width="100" relative="1" as="geometry">
            <mxPoint y="170" as="sourcePoint" />
            <mxPoint x="10" y="170" as="targetPoint" />
          </mxGeometry>
        </mxCell>
        <mxCell id="uXmJdy385k_lljt_rK2v-73" value="" style="shape=link;html=1;rounded=0;" edge="1" parent="uXmJdy385k_lljt_rK2v-115">
          <mxGeometry width="100" relative="1" as="geometry">
            <mxPoint y="180" as="sourcePoint" />
            <mxPoint x="10" y="180" as="targetPoint" />
          </mxGeometry>
        </mxCell>
        <mxCell id="uXmJdy385k_lljt_rK2v-77" value="" style="shape=link;html=1;rounded=0;" edge="1" parent="uXmJdy385k_lljt_rK2v-115">
          <mxGeometry width="100" relative="1" as="geometry">
            <mxPoint y="190" as="sourcePoint" />
            <mxPoint x="10" y="190" as="targetPoint" />
          </mxGeometry>
        </mxCell>
        <mxCell id="uXmJdy385k_lljt_rK2v-78" value="" style="shape=link;html=1;rounded=0;" edge="1" parent="uXmJdy385k_lljt_rK2v-115">
          <mxGeometry width="100" relative="1" as="geometry">
            <mxPoint y="200" as="sourcePoint" />
            <mxPoint x="10" y="200" as="targetPoint" />
          </mxGeometry>
        </mxCell>
        <mxCell id="uXmJdy385k_lljt_rK2v-79" value="" style="shape=link;html=1;rounded=0;" edge="1" parent="uXmJdy385k_lljt_rK2v-115">
          <mxGeometry width="100" relative="1" as="geometry">
            <mxPoint y="210" as="sourcePoint" />
            <mxPoint x="10" y="210" as="targetPoint" />
          </mxGeometry>
        </mxCell>
        <mxCell id="uXmJdy385k_lljt_rK2v-80" value="" style="shape=link;html=1;rounded=0;" edge="1" parent="uXmJdy385k_lljt_rK2v-115">
          <mxGeometry width="100" relative="1" as="geometry">
            <mxPoint y="220" as="sourcePoint" />
            <mxPoint x="10" y="220" as="targetPoint" />
          </mxGeometry>
        </mxCell>
        <mxCell id="uXmJdy385k_lljt_rK2v-81" value="" style="shape=link;html=1;rounded=0;" edge="1" parent="uXmJdy385k_lljt_rK2v-115">
          <mxGeometry width="100" relative="1" as="geometry">
            <mxPoint y="230" as="sourcePoint" />
            <mxPoint x="10" y="230" as="targetPoint" />
          </mxGeometry>
        </mxCell>
        <mxCell id="uXmJdy385k_lljt_rK2v-82" value="" style="shape=link;html=1;rounded=0;" edge="1" parent="uXmJdy385k_lljt_rK2v-115">
          <mxGeometry width="100" relative="1" as="geometry">
            <mxPoint y="240" as="sourcePoint" />
            <mxPoint x="10" y="240" as="targetPoint" />
          </mxGeometry>
        </mxCell>
        <mxCell id="uXmJdy385k_lljt_rK2v-83" value="" style="shape=link;html=1;rounded=0;" edge="1" parent="uXmJdy385k_lljt_rK2v-115">
          <mxGeometry width="100" relative="1" as="geometry">
            <mxPoint y="250" as="sourcePoint" />
            <mxPoint x="10" y="250" as="targetPoint" />
          </mxGeometry>
        </mxCell>
        <mxCell id="uXmJdy385k_lljt_rK2v-84" value="" style="shape=link;html=1;rounded=0;" edge="1" parent="uXmJdy385k_lljt_rK2v-115">
          <mxGeometry width="100" relative="1" as="geometry">
            <mxPoint y="260" as="sourcePoint" />
            <mxPoint x="10" y="260" as="targetPoint" />
          </mxGeometry>
        </mxCell>
        <mxCell id="uXmJdy385k_lljt_rK2v-85" value="" style="shape=link;html=1;rounded=0;" edge="1" parent="uXmJdy385k_lljt_rK2v-115">
          <mxGeometry width="100" relative="1" as="geometry">
            <mxPoint y="270" as="sourcePoint" />
            <mxPoint x="10" y="270" as="targetPoint" />
          </mxGeometry>
        </mxCell>
        <mxCell id="uXmJdy385k_lljt_rK2v-86" value="" style="shape=link;html=1;rounded=0;" edge="1" parent="uXmJdy385k_lljt_rK2v-115">
          <mxGeometry width="100" relative="1" as="geometry">
            <mxPoint y="279.99999999999994" as="sourcePoint" />
            <mxPoint x="10" y="279.99999999999994" as="targetPoint" />
          </mxGeometry>
        </mxCell>
        <mxCell id="uXmJdy385k_lljt_rK2v-87" value="" style="shape=link;html=1;rounded=0;" edge="1" parent="uXmJdy385k_lljt_rK2v-115">
          <mxGeometry width="100" relative="1" as="geometry">
            <mxPoint y="289.99999999999994" as="sourcePoint" />
            <mxPoint x="10" y="289.99999999999994" as="targetPoint" />
          </mxGeometry>
        </mxCell>
        <mxCell id="uXmJdy385k_lljt_rK2v-88" value="" style="shape=link;html=1;rounded=0;" edge="1" parent="uXmJdy385k_lljt_rK2v-115">
          <mxGeometry width="100" relative="1" as="geometry">
            <mxPoint y="299.99999999999994" as="sourcePoint" />
            <mxPoint x="10" y="299.99999999999994" as="targetPoint" />
          </mxGeometry>
        </mxCell>
        <mxCell id="uXmJdy385k_lljt_rK2v-89" value="" style="shape=link;html=1;rounded=0;" edge="1" parent="uXmJdy385k_lljt_rK2v-115">
          <mxGeometry width="100" relative="1" as="geometry">
            <mxPoint y="309.99999999999994" as="sourcePoint" />
            <mxPoint x="10" y="309.99999999999994" as="targetPoint" />
          </mxGeometry>
        </mxCell>
        <mxCell id="uXmJdy385k_lljt_rK2v-90" value="" style="shape=link;html=1;rounded=0;" edge="1" parent="uXmJdy385k_lljt_rK2v-115">
          <mxGeometry width="100" relative="1" as="geometry">
            <mxPoint y="319.99999999999994" as="sourcePoint" />
            <mxPoint x="10" y="319.99999999999994" as="targetPoint" />
          </mxGeometry>
        </mxCell>
        <mxCell id="uXmJdy385k_lljt_rK2v-91" value="" style="shape=link;html=1;rounded=0;" edge="1" parent="uXmJdy385k_lljt_rK2v-115">
          <mxGeometry width="100" relative="1" as="geometry">
            <mxPoint y="329.99999999999994" as="sourcePoint" />
            <mxPoint x="10" y="329.99999999999994" as="targetPoint" />
          </mxGeometry>
        </mxCell>
        <mxCell id="uXmJdy385k_lljt_rK2v-92" value="" style="shape=link;html=1;rounded=0;" edge="1" parent="uXmJdy385k_lljt_rK2v-115">
          <mxGeometry width="100" relative="1" as="geometry">
            <mxPoint y="339.99999999999994" as="sourcePoint" />
            <mxPoint x="10" y="339.99999999999994" as="targetPoint" />
          </mxGeometry>
        </mxCell>
        <mxCell id="uXmJdy385k_lljt_rK2v-93" value="" style="shape=link;html=1;rounded=0;" edge="1" parent="uXmJdy385k_lljt_rK2v-115">
          <mxGeometry width="100" relative="1" as="geometry">
            <mxPoint y="349.99999999999994" as="sourcePoint" />
            <mxPoint x="10" y="349.99999999999994" as="targetPoint" />
          </mxGeometry>
        </mxCell>
        <mxCell id="uXmJdy385k_lljt_rK2v-94" value="" style="shape=link;html=1;rounded=0;" edge="1" parent="uXmJdy385k_lljt_rK2v-115">
          <mxGeometry width="100" relative="1" as="geometry">
            <mxPoint y="359.99999999999994" as="sourcePoint" />
            <mxPoint x="10" y="359.99999999999994" as="targetPoint" />
          </mxGeometry>
        </mxCell>
        <mxCell id="uXmJdy385k_lljt_rK2v-95" value="" style="shape=link;html=1;rounded=0;" edge="1" parent="uXmJdy385k_lljt_rK2v-115">
          <mxGeometry width="100" relative="1" as="geometry">
            <mxPoint y="369.99999999999994" as="sourcePoint" />
            <mxPoint x="10" y="369.99999999999994" as="targetPoint" />
          </mxGeometry>
        </mxCell>
        <mxCell id="uXmJdy385k_lljt_rK2v-96" value="" style="shape=link;html=1;rounded=0;" edge="1" parent="uXmJdy385k_lljt_rK2v-115">
          <mxGeometry width="100" relative="1" as="geometry">
            <mxPoint y="379.99999999999994" as="sourcePoint" />
            <mxPoint x="10" y="379.99999999999994" as="targetPoint" />
          </mxGeometry>
        </mxCell>
        <mxCell id="uXmJdy385k_lljt_rK2v-97" value="" style="shape=link;html=1;rounded=0;" edge="1" parent="uXmJdy385k_lljt_rK2v-115">
          <mxGeometry width="100" relative="1" as="geometry">
            <mxPoint y="389.99999999999994" as="sourcePoint" />
            <mxPoint x="10" y="389.99999999999994" as="targetPoint" />
          </mxGeometry>
        </mxCell>
        <mxCell id="uXmJdy385k_lljt_rK2v-99" style="edgeStyle=orthogonalEdgeStyle;rounded=0;orthogonalLoop=1;jettySize=auto;html=1;exitX=0.5;exitY=1;exitDx=0;exitDy=0;" edge="1" parent="uXmJdy385k_lljt_rK2v-115" source="uXmJdy385k_lljt_rK2v-55" target="uXmJdy385k_lljt_rK2v-55">
          <mxGeometry relative="1" as="geometry" />
        </mxCell>
        <mxCell id="uXmJdy385k_lljt_rK2v-101" value="" style="shape=link;html=1;rounded=0;" edge="1" parent="uXmJdy385k_lljt_rK2v-115">
          <mxGeometry width="100" relative="1" as="geometry">
            <mxPoint y="399.99999999999994" as="sourcePoint" />
            <mxPoint x="10" y="399.99999999999994" as="targetPoint" />
          </mxGeometry>
        </mxCell>
        <mxCell id="uXmJdy385k_lljt_rK2v-102" value="" style="shape=link;html=1;rounded=0;" edge="1" parent="uXmJdy385k_lljt_rK2v-115">
          <mxGeometry width="100" relative="1" as="geometry">
            <mxPoint y="409.99999999999994" as="sourcePoint" />
            <mxPoint x="10" y="409.99999999999994" as="targetPoint" />
          </mxGeometry>
        </mxCell>
        <mxCell id="uXmJdy385k_lljt_rK2v-103" value="" style="shape=link;html=1;rounded=0;" edge="1" parent="uXmJdy385k_lljt_rK2v-115">
          <mxGeometry width="100" relative="1" as="geometry">
            <mxPoint y="419.99999999999994" as="sourcePoint" />
            <mxPoint x="10" y="419.99999999999994" as="targetPoint" />
          </mxGeometry>
        </mxCell>
        <mxCell id="uXmJdy385k_lljt_rK2v-104" value="" style="shape=link;html=1;rounded=0;" edge="1" parent="uXmJdy385k_lljt_rK2v-115">
          <mxGeometry width="100" relative="1" as="geometry">
            <mxPoint y="429.99999999999994" as="sourcePoint" />
            <mxPoint x="10" y="429.99999999999994" as="targetPoint" />
          </mxGeometry>
        </mxCell>
        <mxCell id="uXmJdy385k_lljt_rK2v-105" value="" style="shape=link;html=1;rounded=0;" edge="1" parent="uXmJdy385k_lljt_rK2v-115">
          <mxGeometry width="100" relative="1" as="geometry">
            <mxPoint y="439.99999999999994" as="sourcePoint" />
            <mxPoint x="10" y="439.99999999999994" as="targetPoint" />
          </mxGeometry>
        </mxCell>
        <mxCell id="uXmJdy385k_lljt_rK2v-106" value="" style="shape=link;html=1;rounded=0;" edge="1" parent="uXmJdy385k_lljt_rK2v-115">
          <mxGeometry width="100" relative="1" as="geometry">
            <mxPoint y="449.99999999999994" as="sourcePoint" />
            <mxPoint x="10" y="449.99999999999994" as="targetPoint" />
          </mxGeometry>
        </mxCell>
        <mxCell id="uXmJdy385k_lljt_rK2v-107" value="" style="shape=link;html=1;rounded=0;" edge="1" parent="uXmJdy385k_lljt_rK2v-115">
          <mxGeometry width="100" relative="1" as="geometry">
            <mxPoint y="459.99999999999994" as="sourcePoint" />
            <mxPoint x="10" y="459.99999999999994" as="targetPoint" />
          </mxGeometry>
        </mxCell>
        <mxCell id="uXmJdy385k_lljt_rK2v-108" value="" style="shape=link;html=1;rounded=0;" edge="1" parent="uXmJdy385k_lljt_rK2v-115">
          <mxGeometry width="100" relative="1" as="geometry">
            <mxPoint y="469.99999999999994" as="sourcePoint" />
            <mxPoint x="10" y="469.99999999999994" as="targetPoint" />
          </mxGeometry>
        </mxCell>
        <mxCell id="uXmJdy385k_lljt_rK2v-109" value="" style="shape=link;html=1;rounded=0;" edge="1" parent="uXmJdy385k_lljt_rK2v-115">
          <mxGeometry width="100" relative="1" as="geometry">
            <mxPoint y="479.99999999999994" as="sourcePoint" />
            <mxPoint x="10" y="479.99999999999994" as="targetPoint" />
          </mxGeometry>
        </mxCell>
        <mxCell id="uXmJdy385k_lljt_rK2v-110" value="" style="shape=link;html=1;rounded=0;" edge="1" parent="uXmJdy385k_lljt_rK2v-115">
          <mxGeometry width="100" relative="1" as="geometry">
            <mxPoint y="489.99999999999994" as="sourcePoint" />
            <mxPoint x="10" y="489.99999999999994" as="targetPoint" />
          </mxGeometry>
        </mxCell>
        <mxCell id="uXmJdy385k_lljt_rK2v-111" value="" style="shape=link;html=1;rounded=0;" edge="1" parent="uXmJdy385k_lljt_rK2v-115">
          <mxGeometry width="100" relative="1" as="geometry">
            <mxPoint y="499.99999999999994" as="sourcePoint" />
            <mxPoint x="10" y="499.99999999999994" as="targetPoint" />
          </mxGeometry>
        </mxCell>
        <mxCell id="uXmJdy385k_lljt_rK2v-112" value="" style="shape=link;html=1;rounded=0;" edge="1" parent="uXmJdy385k_lljt_rK2v-115">
          <mxGeometry width="100" relative="1" as="geometry">
            <mxPoint y="509.99999999999994" as="sourcePoint" />
            <mxPoint x="10" y="509.99999999999994" as="targetPoint" />
          </mxGeometry>
        </mxCell>
        <mxCell id="uXmJdy385k_lljt_rK2v-113" value="" style="shape=link;html=1;rounded=0;" edge="1" parent="uXmJdy385k_lljt_rK2v-115">
          <mxGeometry width="100" relative="1" as="geometry">
            <mxPoint y="520" as="sourcePoint" />
            <mxPoint x="10" y="520" as="targetPoint" />
          </mxGeometry>
        </mxCell>
        <mxCell id="uXmJdy385k_lljt_rK2v-114" value="" style="shape=link;html=1;rounded=0;" edge="1" parent="uXmJdy385k_lljt_rK2v-115">
          <mxGeometry width="100" relative="1" as="geometry">
            <mxPoint y="530" as="sourcePoint" />
            <mxPoint x="10" y="530" as="targetPoint" />
          </mxGeometry>
        </mxCell>
        <mxCell id="uXmJdy385k_lljt_rK2v-45" value="" style="rounded=1;whiteSpace=wrap;html=1;fillColor=#424242;strokeColor=default;" vertex="1" parent="1">
          <mxGeometry x="110" y="240" width="10" height="540" as="geometry" />
        </mxCell>
        <mxCell id="uXmJdy385k_lljt_rK2v-46" value="" style="rounded=1;whiteSpace=wrap;html=1;fillColor=#424242;strokeColor=default;" vertex="1" parent="1">
          <mxGeometry x="600" y="239.43" width="10" height="540" as="geometry" />
        </mxCell>
        <mxCell id="uXmJdy385k_lljt_rK2v-48" value="" style="rounded=1;whiteSpace=wrap;html=1;fillColor=#424242;" vertex="1" parent="1">
          <mxGeometry x="120" y="630" width="480" height="10" as="geometry" />
        </mxCell>
        <mxCell id="uXmJdy385k_lljt_rK2v-49" value="" style="group" vertex="1" connectable="0" parent="1">
          <mxGeometry x="120" y="640" width="480" height="80" as="geometry" />
        </mxCell>
        <mxCell id="uXmJdy385k_lljt_rK2v-27" value="" style="rounded=1;whiteSpace=wrap;html=1;fillColor=#454545;" vertex="1" parent="uXmJdy385k_lljt_rK2v-49">
          <mxGeometry width="480" height="40" as="geometry" />
        </mxCell>
        <mxCell id="uXmJdy385k_lljt_rK2v-32" value="" style="rounded=0;whiteSpace=wrap;html=1;" vertex="1" parent="uXmJdy385k_lljt_rK2v-49">
          <mxGeometry x="10" y="10" width="20" height="20" as="geometry" />
        </mxCell>
        <mxCell id="uXmJdy385k_lljt_rK2v-33" value="" style="rounded=0;whiteSpace=wrap;html=1;" vertex="1" parent="uXmJdy385k_lljt_rK2v-49">
          <mxGeometry x="50" y="10" width="20" height="20" as="geometry" />
        </mxCell>
        <mxCell id="uXmJdy385k_lljt_rK2v-34" value="" style="rounded=0;whiteSpace=wrap;html=1;" vertex="1" parent="uXmJdy385k_lljt_rK2v-49">
          <mxGeometry x="90" y="10" width="20" height="20" as="geometry" />
        </mxCell>
        <mxCell id="uXmJdy385k_lljt_rK2v-35" value="" style="rounded=0;whiteSpace=wrap;html=1;" vertex="1" parent="uXmJdy385k_lljt_rK2v-49">
          <mxGeometry x="130" y="10" width="20" height="20" as="geometry" />
        </mxCell>
        <mxCell id="uXmJdy385k_lljt_rK2v-36" value="" style="rounded=0;whiteSpace=wrap;html=1;" vertex="1" parent="uXmJdy385k_lljt_rK2v-49">
          <mxGeometry x="170" y="10" width="20" height="20" as="geometry" />
        </mxCell>
        <mxCell id="uXmJdy385k_lljt_rK2v-37" value="" style="rounded=0;whiteSpace=wrap;html=1;" vertex="1" parent="uXmJdy385k_lljt_rK2v-49">
          <mxGeometry x="210" y="10" width="20" height="20" as="geometry" />
        </mxCell>
        <mxCell id="uXmJdy385k_lljt_rK2v-38" value="" style="rounded=0;whiteSpace=wrap;html=1;" vertex="1" parent="uXmJdy385k_lljt_rK2v-49">
          <mxGeometry x="250" y="10" width="20" height="20" as="geometry" />
        </mxCell>
        <mxCell id="uXmJdy385k_lljt_rK2v-39" value="" style="rounded=0;whiteSpace=wrap;html=1;" vertex="1" parent="uXmJdy385k_lljt_rK2v-49">
          <mxGeometry x="289" y="10" width="20" height="20" as="geometry" />
        </mxCell>
        <mxCell id="uXmJdy385k_lljt_rK2v-40" value="" style="rounded=0;whiteSpace=wrap;html=1;" vertex="1" parent="uXmJdy385k_lljt_rK2v-49">
          <mxGeometry x="330" y="10" width="20" height="20" as="geometry" />
        </mxCell>
        <mxCell id="uXmJdy385k_lljt_rK2v-41" value="" style="rounded=0;whiteSpace=wrap;html=1;" vertex="1" parent="uXmJdy385k_lljt_rK2v-49">
          <mxGeometry x="370" y="10" width="20" height="20" as="geometry" />
        </mxCell>
        <mxCell id="uXmJdy385k_lljt_rK2v-42" value="" style="rounded=0;whiteSpace=wrap;html=1;" vertex="1" parent="uXmJdy385k_lljt_rK2v-49">
          <mxGeometry x="410" y="10" width="20" height="20" as="geometry" />
        </mxCell>
        <mxCell id="uXmJdy385k_lljt_rK2v-43" value="" style="rounded=0;whiteSpace=wrap;html=1;" vertex="1" parent="uXmJdy385k_lljt_rK2v-49">
          <mxGeometry x="450" y="10" width="20" height="20" as="geometry" />
        </mxCell>
        <mxCell id="uXmJdy385k_lljt_rK2v-50" value="" style="rounded=1;whiteSpace=wrap;html=1;fillColor=#424242;" vertex="1" parent="uXmJdy385k_lljt_rK2v-49">
          <mxGeometry y="40" width="480" height="40" as="geometry" />
        </mxCell>
        <mxCell id="uXmJdy385k_lljt_rK2v-52" value="" style="endArrow=none;html=1;rounded=0;entryX=1;entryY=0.5;entryDx=0;entryDy=0;" edge="1" parent="uXmJdy385k_lljt_rK2v-49" target="uXmJdy385k_lljt_rK2v-51">
          <mxGeometry width="50" height="50" relative="1" as="geometry">
            <mxPoint x="10" y="60" as="sourcePoint" />
            <mxPoint x="60" y="10" as="targetPoint" />
          </mxGeometry>
        </mxCell>
        <mxCell id="uXmJdy385k_lljt_rK2v-51" value="" style="rounded=0;whiteSpace=wrap;html=1;fillColor=#333333;" vertex="1" parent="uXmJdy385k_lljt_rK2v-49">
          <mxGeometry x="10" y="50" width="460" height="20" as="geometry" />
        </mxCell>
        <mxCell id="uXmJdy385k_lljt_rK2v-54" value="" style="shape=link;html=1;rounded=0;entryX=1;entryY=0.5;entryDx=0;entryDy=0;" edge="1" parent="uXmJdy385k_lljt_rK2v-49" target="uXmJdy385k_lljt_rK2v-51">
          <mxGeometry width="100" relative="1" as="geometry">
            <mxPoint x="10" y="59.75999999999999" as="sourcePoint" />
            <mxPoint x="110" y="59.75999999999999" as="targetPoint" />
          </mxGeometry>
        </mxCell>
        <mxCell id="uXmJdy385k_lljt_rK2v-28" value="" style="rounded=1;whiteSpace=wrap;html=1;fillColor=#424242;" vertex="1" parent="1">
          <mxGeometry x="120" y="720" width="480" height="60" as="geometry" />
        </mxCell>
      </root>
    </mxGraphModel>
  </diagram>
</mxfile>
